<mxfile host="app.diagrams.net" modified="2023-06-20T18:01:08.454Z" agent="Mozilla/5.0 (Windows NT 10.0; Win64; x64) AppleWebKit/537.36 (KHTML, like Gecko) Chrome/114.0.0.0 Safari/537.36" version="21.3.8" etag="shDdfh0l_VVahKM13JcJ" type="github">
  <diagram name="PÃ¡gina-1" id="eaBCgXwUY3wPtPF0X7BX">
    <mxGraphModel>
      <root>
        <mxCell id="0" />
        <mxCell id="1" parent="0" />
      </root>
    </mxGraphModel>
  </diagram>
</mxfile>
